<?xml version="1.0" encoding="UTF-8"?>
<svg id="Logo" xmlns="http://www.w3.org/2000/svg" viewBox="0 0 541 130.96">
  <defs>
    <style>
      .cls-1 {
        opacity: .92;
      }
    </style>
  </defs>
  <polygon points="0 .96 82 .96 82 6.96 11 6.96 11 44.96 76 44.96 76 50.96 11 50.96 11 97.96 0 97.96 0 .96"/>
  <polygon points="182 49.96 114 49.96 114 91.96 189 91.96 189 97.96 103 97.96 103 .96 185 .96 185 6.96 114 6.96 114 43.96 182 43.96 182 49.96"/>
  <path d="m346.32,52.31c-1.56-14.35-3.57-33.02-3.57-43.35h-.45c-6.03,10.34-12.95,21.53-22.56,36.17l-34.84,52.83h-8.26l-32.6-52.11c-9.38-15.07-16.3-26.56-21.22-36.89h-.45c-.67,11.2-1.79,28.85-3.8,44.79l-5.36,44.21h-10.74L214.57.96h12.22l36.35,57.99c7.63,12.12,13.46,22.21,17.95,31.01h.45c4.04-8.22,10.1-18.03,18.63-30.87L338.32.96h12.67l10.75,97h-10.74l-4.69-45.65Z"/>
  <path d="m507,92.88c-8.08,2.01-26.04,5.89-50.73,5.89-23.12,0-43.55-3.73-60.39-13.78-13.47-8.04-22-21.1-22-35.75,0-22.68,26.94-49.24,87.77-49.24,18.86,0,34.12,3.01,40.41,4.88l-3.59,5.74c-9.2-2.73-20.88-4.74-37.26-4.74-49.61,0-75.88,19.67-75.88,43.64s26.71,43.35,72.96,43.35c18.63,0,30.75-1.72,37.71-4.02v-32.9h-39v-6h50v42.92Z"/>
  <rect x="530" y=".96" width="11" height="97"/>
  <g class="cls-1">
    <ellipse cx="509.5" cy="123.96" rx="10.5" ry="7"/>
    <ellipse cx="52.5" cy="123.96" rx="10.5" ry="7"/>
    <ellipse cx="279.5" cy="123.96" rx="7.5" ry="5"/>
  </g>
</svg>