<?xml version="1.0" encoding="UTF-8"?>
<svg id="Logo" xmlns="http://www.w3.org/2000/svg" viewBox="0 0 540 225">
  <defs>
    <style>
      .cls-1 {
        fill: #fff;
      }
    </style>
  </defs>
  <g>
    <path class="cls-1" d="M-.34,2.03h81.74v5.89H10.6v38.04h64.77v5.89H10.6v46.94H-.34V2.03Z"/>
    <path class="cls-1" d="M181,50.7h-67v42.21h74.59v5.89h-85.53V2.03h81.74v5.89h-70.79v36.89h67v5.89Z"/>
    <path class="cls-1" d="M345.82,53.14c-1.56-14.36-3.57-33.02-3.57-43.35h-.45c-6.03,10.34-12.95,21.53-22.56,36.18l-34.84,52.83h-8.26l-32.61-52.11c-9.38-15.07-16.3-26.56-21.22-36.89h-.45c-.67,11.2-1.79,28.85-3.8,44.79l-5.36,44.21h-10.72L214.06,2.03h12.51l36.18,57.71c7.59,12.06,13.4,22.11,17.87,30.86h.45c4.02-8.18,10.05-17.94,18.54-30.72L337.56,2.03h12.95l10.72,96.76h-10.72l-4.69-45.65Z"/>
    <path class="cls-1" d="M506.17,93.91c-8.04,2.01-25.91,5.89-50.47,5.89-23,0-43.33-3.73-60.07-13.78-13.4-8.04-21.89-21.1-21.89-35.75,0-22.68,26.8-49.24,87.32-49.24,18.76,0,33.95,3.01,40.2,4.88l-3.57,5.74c-9.16-2.73-20.77-4.74-37.07-4.74-49.36,0-75.49,19.67-75.49,43.64s26.58,43.35,72.58,43.35c18.54,0,30.6-1.72,37.52-4.02v-33.16h-38.86v-5.74h49.8v42.92Z"/>
    <path class="cls-1" d="M540.34,2.03v96.76h-10.94V2.03h10.94Z"/>
  </g>
  <g>
    <path class="cls-1" d="M8.13,186.09l-4.14,11.78H1.54l12.17-33.63h2.3l12.07,33.63h-2.44l-4.24-11.78h-13.27ZM20.7,184.09l-4.09-11.23c-.85-2.34-1.3-4.04-1.75-5.94h-.15c-.45,1.95-1,3.69-1.75,5.84l-4.09,11.33h11.83Z"/>
    <path class="cls-1" d="M58.62,164.73c2.1-.5,4.94-.75,7.29-.75,4.39,0,7.19.95,9.08,2.84,1.45,1.35,2.35,3.59,2.35,5.94,0,4.54-2.69,7.43-6.59,8.78v.1c2.69.85,4.39,3.39,5.19,7.13,1.15,5.24,1.8,7.73,2.5,9.08h-2.45c-.55-1-1.25-3.94-2.15-8.18-1.05-4.84-3.14-7.04-7.58-7.24h-5.24v15.42h-2.4v-33.13ZM61.02,180.5h5.34c5.19,0,8.58-2.89,8.58-7.33,0-5.14-3.79-7.24-9.08-7.24-2.29,0-3.99.25-4.84.45v14.12Z"/>
    <path class="cls-1" d="M136.77,202.25c-4.39-1.05-9.13-2.34-12.62-3.39-.7-.2-1.3-.45-1.9-.45-8.23-.2-14.87-6.24-14.87-17.01s6.69-17.76,15.17-17.76,14.62,6.64,14.62,17.06c0,9.28-4.29,14.87-10.63,16.86v.2c3.79.85,7.93,1.8,10.98,2.29l-.75,2.2ZM134.67,180.85c0-7.13-3.89-15.22-12.22-15.22s-12.57,7.88-12.57,15.72,4.44,15.07,12.32,15.07,12.47-7.23,12.47-15.57Z"/>
    <path class="cls-1" d="M170.8,164.23v20.31c0,8.53,3.99,11.83,8.93,11.83,5.59,0,9.43-3.59,9.43-11.83v-20.31h2.4v20.06c0,10.33-5.59,14.12-11.93,14.12-5.89,0-11.23-3.44-11.23-13.72v-20.46h2.4Z"/>
    <path class="cls-1" d="M227.39,164.23v33.63h-2.4v-33.63h2.4Z"/>
    <path class="cls-1" d="M267.26,166.23h-10.98v-2h24.35v2h-10.98v31.63h-2.4v-31.63Z"/>
    <path class="cls-1" d="M325.24,181.15h-13.42v14.72h15.02v2h-17.41v-33.63h16.62v2h-14.22v12.92h13.42v2Z"/>
    <path class="cls-1" d="M365.51,166.23h-10.98v-2h24.35v2h-10.98v31.63h-2.4v-31.63Z"/>
    <path class="cls-1" d="M410.07,164.23v20.31c0,8.53,3.99,11.83,8.93,11.83,5.59,0,9.43-3.59,9.43-11.83v-20.31h2.39v20.06c0,10.33-5.59,14.12-11.92,14.12-5.89,0-11.23-3.44-11.23-13.72v-20.46h2.39Z"/>
    <path class="cls-1" d="M464.26,164.73c2.1-.5,4.94-.75,7.28-.75,4.39,0,7.19.95,9.08,2.84,1.45,1.35,2.35,3.59,2.35,5.94,0,4.54-2.69,7.43-6.59,8.78v.1c2.69.85,4.39,3.39,5.19,7.13,1.15,5.24,1.8,7.73,2.5,9.08h-2.45c-.55-1-1.25-3.94-2.15-8.18-1.05-4.84-3.14-7.04-7.58-7.24h-5.24v15.42h-2.39v-33.13ZM466.66,180.5h5.34c5.19,0,8.58-2.89,8.58-7.33,0-5.14-3.79-7.24-9.08-7.24-2.29,0-3.99.25-4.84.45v14.12Z"/>
    <path class="cls-1" d="M518.85,186.09l-4.14,11.78h-2.44l12.17-33.63h2.29l12.08,33.63h-2.45l-4.24-11.78h-13.27ZM531.42,184.09l-4.09-11.23c-.85-2.34-1.3-4.04-1.75-5.94h-.15c-.45,1.95-1,3.69-1.75,5.84l-4.09,11.33h11.83Z"/>
  </g>
  <circle class="cls-1" cx="60" cy="112.33" r="6.5"/>
  <circle class="cls-1" cx="480" cy="112.33" r="6.5"/>
  <circle class="cls-1" cx="280.5" cy="112.33" r="5"/>
</svg>